<svg width="299" height="39" viewBox="0 0 299 39" fill="none" xmlns="http://www.w3.org/2000/svg">
<path d="M0.7453 23.7936L22.3004 30.9904V22.6021L0.853617 15.4054L0.7453 23.7936Z" fill="url(#paint0_linear-l-compact)"/>
<path d="M0 7.35697C0 7.82216 0.297036 8.23541 0.737974 8.38366L22.4089 15.6699V7.25503L0.856363 0.0342093C0.435349 -0.106844 0 0.206432 0 0.650447V7.35697Z" fill="url(#paint1_linear-l-compact)"/>
<path d="M0 16.7315C0 15.7994 0.596249 14.9717 1.48041 14.6766L21.7907 7.89689C22.1246 7.78545 22.2245 7.36167 21.9756 7.11279L22.3955 7.24598C22.7554 7.36016 23 7.69431 23 8.07195V8.4126V14.2897C23 15.2203 22.4057 16.0469 21.5235 16.3432L1.14003 23.1906C0.819502 23.2983 0.776851 23.7342 1.07043 23.902L0.70492 23.7848C0.284934 23.6503 0 23.2598 0 22.8188V16.7315Z" fill="url(#paint2_linear-l-compact)"/>
<path d="M0 32.1126C0 31.1805 0.596249 30.3528 1.48041 30.0577L21.7907 23.278C22.1246 23.1666 22.2245 22.7428 21.9756 22.4939L22.3955 22.6271C22.7554 22.7413 23 23.0754 23 23.4531V23.7937V29.6709C23 30.6014 22.4057 31.428 21.5236 31.7244L0.962111 38.6332L0.63716 38.7415C0.321042 38.84 0 38.6038 0 38.2727V38.1999V32.1126Z" fill="url(#paint3_linear-l-compact)"/>
<path d="M35.0758 25.3429C33.3162 25.3429 31.8608 24.7619 30.7099 23.5999C29.57 22.4378 29 21.0102 29 19.3169C29 17.6236 29.57 16.196 30.7099 15.0339C31.8608 13.8719 33.3162 13.2909 35.0758 13.2909C36.1383 13.2909 37.1122 13.5454 37.9975 14.0545C38.894 14.5636 39.5912 15.2498 40.0892 16.113L38.7446 16.8932C38.4125 16.2513 37.9145 15.7422 37.2505 15.366C36.5975 14.9786 35.8727 14.7849 35.0758 14.7849C33.7367 14.7849 32.6411 15.2166 31.7889 16.0798C30.9478 16.943 30.5273 18.0221 30.5273 19.3169C30.5273 20.6007 30.9478 21.6742 31.7889 22.5374C32.6411 23.4007 33.7367 23.8323 35.0758 23.8323C35.8727 23.8323 36.5975 23.6441 37.2505 23.2679C37.9145 22.8805 38.4125 22.3714 38.7446 21.7406L40.0892 22.5042C39.6023 23.3675 38.9106 24.0591 38.0141 24.5793C37.1177 25.0884 36.1383 25.3429 35.0758 25.3429Z" fill="black"/>
<path d="M43.3816 23.6663H48.7768V25.1271H41.8377V13.5067H48.6938V14.9675H43.3816V18.5367H48.2788V19.9809H43.3816V23.6663Z" fill="black"/>
<path d="M58.0777 13.5067V14.9675H54.6413V25.1271H53.1141V14.9675H49.6943V13.5067H58.0777Z" fill="black"/>
<path d="M61.1494 23.6663H66.5446V25.1271H59.6056V13.5067H66.4616V14.9675H61.1494V18.5367H66.0466V19.9809H61.1494V23.6663Z" fill="black"/>
<path d="M75.0487 19.1011C75.5799 19.3556 76.0004 19.7209 76.3103 20.1967C76.6313 20.6726 76.7917 21.2204 76.7917 21.8402C76.7917 22.7698 76.4653 23.5501 75.8123 24.1809C75.1593 24.8117 74.3625 25.1271 73.4218 25.1271H68.4084V13.5067H73.0566C73.9641 13.5067 74.7333 13.811 75.3641 14.4197C75.9949 15.0284 76.3103 15.781 76.3103 16.6774C76.3103 17.7066 75.8898 18.5145 75.0487 19.1011ZM73.0566 14.9509H69.9523V18.5035H73.0566C73.5436 18.5035 73.953 18.3319 74.285 17.9889C74.6171 17.6458 74.7831 17.2252 74.7831 16.7272C74.7831 16.2403 74.6115 15.8252 74.2684 15.4822C73.9364 15.128 73.5325 14.9509 73.0566 14.9509ZM73.4218 23.6829C73.942 23.6829 74.3791 23.5003 74.7333 23.135C75.0874 22.7698 75.2645 22.3216 75.2645 21.7904C75.2645 21.2702 75.0819 20.8276 74.7167 20.4623C74.3625 20.0971 73.9309 19.9145 73.4218 19.9145H69.9523V23.6829H73.4218Z" fill="black"/>
<path d="M88.2832 23.5833C87.1212 24.7564 85.6991 25.3429 84.0169 25.3429C82.3347 25.3429 80.9126 24.7564 79.7505 23.5833C78.5885 22.4102 78.0075 20.988 78.0075 19.3169C78.0075 17.6347 78.5885 16.2126 79.7505 15.0505C80.9126 13.8774 82.3347 13.2909 84.0169 13.2909C85.6991 13.2909 87.1212 13.8774 88.2832 15.0505C89.4564 16.2126 90.0429 17.6347 90.0429 19.3169C90.0429 20.988 89.4564 22.4102 88.2832 23.5833ZM80.813 22.5374C81.6762 23.4007 82.7442 23.8323 84.0169 23.8323C85.2896 23.8323 86.352 23.4007 87.2042 22.5374C88.0674 21.6631 88.4991 20.5896 88.4991 19.3169C88.4991 18.0331 88.0674 16.9596 87.2042 16.0964C86.352 15.2221 85.2896 14.7849 84.0169 14.7849C82.7442 14.7849 81.6762 15.2221 80.813 16.0964C79.9608 16.9596 79.5347 18.0331 79.5347 19.3169C79.5347 20.5896 79.9608 21.6631 80.813 22.5374Z" fill="black"/>
<path d="M94.0404 12.2616V11H98.5226V12.2616H94.0404ZM99.1202 25.1271V16.4616L93.144 25.1271H91.8989V13.5067H93.4428V22.1888L99.419 13.5067H100.664V25.1271H99.1202Z" fill="black"/>
<path d="M114.206 13.7225H115.767L112.031 22.5872C111.611 23.5833 111.074 24.3082 110.421 24.7619C109.768 25.2046 108.971 25.3983 108.031 25.3429V23.9153C108.673 23.9817 109.193 23.8876 109.591 23.6331C109.99 23.3785 110.322 22.9414 110.587 22.3216L110.703 22.056L106.769 13.7225H108.329L111.417 20.3627L114.206 13.7225Z" fill="black"/>
<path d="M124.367 13.7225H125.894V25.3429H124.367V20.1137H118.723V25.3429H117.179V13.7225H118.723V18.6529H124.367V13.7225Z" fill="black"/>
<path d="M135.602 25.3429V16.6774L129.626 25.3429H128.381V13.7225H129.925V22.4046L135.901 13.7225H137.146V25.3429H135.602Z" fill="black"/>
<path d="M146.272 19.3169C146.803 19.5715 147.224 19.9367 147.534 20.4125C147.855 20.8884 148.015 21.4363 148.015 22.056C148.015 22.9856 147.689 23.7659 147.036 24.3967C146.383 25.0275 145.586 25.3429 144.645 25.3429H139.632V13.7225H144.28C145.188 13.7225 145.957 14.0268 146.588 14.6355C147.218 15.2442 147.534 15.9968 147.534 16.8932C147.534 17.9225 147.113 18.7304 146.272 19.3169ZM144.28 15.1668H141.176V18.7193H144.28C144.767 18.7193 145.176 18.5477 145.509 18.2047C145.841 17.8616 146.007 17.441 146.007 16.943C146.007 16.4561 145.835 16.0411 145.492 15.698C145.16 15.3438 144.756 15.1668 144.28 15.1668ZM144.645 23.8987C145.165 23.8987 145.603 23.7161 145.957 23.3509C146.311 22.9856 146.488 22.5374 146.488 22.0062C146.488 21.4861 146.305 21.0434 145.94 20.6782C145.586 20.3129 145.154 20.1303 144.645 20.1303H141.176V23.8987H144.645Z" fill="black"/>
<path d="M151.389 23.8821H156.784V25.3429H149.845V13.7225H156.701V15.1834H151.389V18.7525H156.286V20.1967H151.389V23.8821Z" fill="black"/>
<path d="M162.865 13.7225C163.938 13.7225 164.829 14.0822 165.537 14.8015C166.257 15.5098 166.616 16.3952 166.616 17.4576C166.616 18.509 166.257 19.3944 165.537 20.1137C164.829 20.8331 163.938 21.1928 162.865 21.1928H160.192V25.3429H158.648V13.7225H162.865ZM162.865 19.7485C163.506 19.7485 164.038 19.5327 164.458 19.1011C164.879 18.6584 165.089 18.1106 165.089 17.4576C165.089 16.7936 164.879 16.2458 164.458 15.8142C164.038 15.3826 163.506 15.1668 162.865 15.1668H160.192V19.7485H162.865Z" fill="black"/>
<path d="M173.82 25.5587C172.061 25.5587 170.605 24.9777 169.454 23.8157C168.314 22.6536 167.745 21.226 167.745 19.5327C167.745 17.8395 168.314 16.4118 169.454 15.2498C170.605 14.0877 172.061 13.5067 173.82 13.5067C174.883 13.5067 175.857 13.7612 176.742 14.2703C177.638 14.7794 178.336 15.4656 178.834 16.3288L177.489 17.109C177.157 16.4671 176.659 15.9581 175.995 15.5818C175.342 15.1944 174.617 15.0007 173.82 15.0007C172.481 15.0007 171.386 15.4324 170.533 16.2956C169.692 17.1588 169.272 18.2379 169.272 19.5327C169.272 20.8165 169.692 21.89 170.533 22.7532C171.386 23.6165 172.481 24.0481 173.82 24.0481C174.617 24.0481 175.342 23.8599 175.995 23.4837C176.659 23.0963 177.157 22.5872 177.489 21.9564L178.834 22.72C178.347 23.5833 177.655 24.275 176.759 24.7951C175.862 25.3042 174.883 25.5587 173.82 25.5587Z" fill="black"/>
<path d="M187.803 25.3429V16.6774L181.827 25.3429H180.582V13.7225H182.126V22.4046L188.102 13.7225H189.347V25.3429H187.803Z" fill="black"/>
<path d="M199.27 13.7225V15.1834H195.834V25.3429H194.307V15.1834H190.887V13.7225H199.27Z" fill="black"/>
<path d="M202.342 23.8821H207.737V25.3429H200.798V13.7225H207.654V15.1834H202.342V18.7525H207.239V20.1967H202.342V23.8821Z" fill="black"/>
<path d="M217.038 13.7225V15.1834H213.602V25.3429H212.074V15.1834H208.655V13.7225H217.038Z" fill="black"/>
<path d="M224.823 16.9596L222.997 19.9975L224.823 23.0188H223.263L221.436 19.9975L223.263 16.9596H224.823ZM227.645 16.9596L225.819 19.9975L227.645 23.0188H226.085L224.259 19.9975L226.085 16.9596H227.645Z" fill="black"/>
<path d="M235.659 19.1177C236.257 19.3722 236.722 19.743 237.054 20.2299C237.386 20.7169 237.552 21.2924 237.552 21.9564C237.552 22.9524 237.176 23.7659 236.423 24.3967C235.681 25.0275 234.696 25.3429 233.468 25.3429C232.35 25.3429 231.448 25.0939 230.762 24.5959C230.087 24.0979 229.611 23.456 229.335 22.6702L230.646 21.9232C230.989 23.2291 231.93 23.8821 233.468 23.8821C234.276 23.8821 234.901 23.705 235.344 23.3509C235.787 22.9856 236.008 22.5042 236.008 21.9066C236.008 21.309 235.798 20.8276 235.377 20.4623C234.968 20.0971 234.392 19.9145 233.651 19.9145H232.289V18.5035H233.269C233.977 18.5035 234.542 18.3319 234.962 17.9889C235.383 17.6347 235.593 17.1754 235.593 16.611C235.593 16.0577 235.394 15.6094 234.995 15.2664C234.608 14.9122 234.066 14.7351 233.368 14.7351C232.085 14.7351 231.227 15.3051 230.795 16.445L229.501 15.698C230.198 14.0932 231.487 13.2909 233.368 13.2909C234.486 13.2909 235.388 13.6008 236.074 14.2205C236.772 14.8403 237.12 15.626 237.12 16.5778C237.12 17.6845 236.633 18.5311 235.659 19.1177Z" fill="black"/>
<path d="M246.573 13.5067H248.101V25.1271H246.573V19.8979H240.929V25.1271H239.385V13.5067H240.929V18.4371H246.573V13.5067Z" fill="black"/>
<path d="M258.24 25.1271L257.294 22.5208H252.065L251.119 25.1271H249.475L253.808 13.5067H255.551L259.884 25.1271H258.24ZM252.596 21.0766H256.763L254.671 15.3494L252.596 21.0766Z" fill="black"/>
<path d="M268.443 13.5067H269.97V25.1271H268.443V19.8979H262.799V25.1271H261.255V13.5067H262.799V18.4371H268.443V13.5067Z" fill="black"/>
<path d="M279.678 25.1271V16.4616L273.702 25.1271H272.457V13.5067H274.001V22.1888L279.977 13.5067H281.222V25.1271H279.678Z" fill="black"/>
<path d="M285.252 23.6663H290.647V25.1271H283.708V13.5067H290.564V14.9675H285.252V18.5367H290.149V19.9809H285.252V23.6663Z" fill="black"/>
<path d="M293.955 16.9596L295.781 19.9975L293.955 23.0188H292.394L294.22 19.9975L292.394 16.9596H293.955ZM296.777 16.9596L298.603 19.9975L296.777 23.0188H295.216L297.043 19.9975L295.216 16.9596H296.777Z" fill="black"/>
<defs>
<linearGradient id="paint0_linear-l-compact" x1="-0.264548" y1="23.5589" x2="21.3244" y2="21.3868" gradientUnits="userSpaceOnUse">
<stop offset="0" stop-color="#52CEFF"/>
<stop offset="1" stop-color="#1C7B9C"/>
</linearGradient>
<linearGradient id="paint1_linear-l-compact" x1="-0.264368" y1="8.13553" x2="21.3246" y2="5.96339" gradientUnits="userSpaceOnUse">
<stop offset="0" stop-color="#52CEFF"/>
<stop offset="1" stop-color="#1C7B9C"/>
</linearGradient>
<linearGradient id="paint2_linear-l-compact" x1="23" y1="7.45899" x2="5.5158" y2="27.8701" gradientUnits="userSpaceOnUse">
<stop offset="0" stop-color="#EB4F45"/>
<stop offset="1" stop-color="#AB1C13"/>
</linearGradient>
<linearGradient id="paint3_linear-l-compact" x1="23" y1="22.8401" x2="5.5158" y2="43.2512" gradientUnits="userSpaceOnUse">
<stop offset="0" stop-color="#EB4F45"/>
<stop offset="1" stop-color="#AB1C13"/>
</linearGradient>
</defs>
</svg>
