<svg width="236" height="88" viewBox="0 0 236 88" fill="none" xmlns="http://www.w3.org/2000/svg">
<path d="M1.68481 53.774L50.3998 70.0388V51.0812L1.92961 34.8164L1.68481 53.774Z" fill="url(#paint0_linear)"/>
<path d="M0 16.6268C0 17.6782 0.671307 18.6121 1.66784 18.9472L50.6446 35.4143V16.3965L1.9354 0.0772591C0.983898 -0.241528 0 0.466484 0 1.46997V16.6268Z" fill="url(#paint1_linear)"/>
<path d="M0 37.8135C0 35.7069 1.34754 33.8364 3.34576 33.1694L49.2475 17.8472C50.002 17.5953 50.2279 16.6375 49.6654 16.0751L50.6143 16.3761C51.4278 16.6341 51.9805 17.3893 51.9805 18.2428V19.0127V32.2949C51.9805 34.3981 50.6373 36.2663 48.6436 36.9361L2.57649 52.4113C1.85209 52.6546 1.7557 53.6398 2.41919 54.0189L1.59313 53.7543C0.643957 53.4502 0 52.5676 0 51.5709V37.8135Z" fill="url(#paint2_linear)"/>
<path d="M0 72.575C0 70.4684 1.34754 68.5979 3.34576 67.9309L49.2475 52.6086C50.002 52.3568 50.2279 51.399 49.6654 50.8365L50.6143 51.1375C51.4278 51.3956 51.9805 52.1508 51.9805 53.0043V53.7741V67.0567C51.9805 69.1597 50.6374 71.0278 48.6439 71.6977L2.17439 87.3116L1.44 87.5564C0.725563 87.7791 0 87.2453 0 86.497V86.3324V72.575Z" fill="url(#paint3_linear)"/>
<path d="M76.3126 29.9197C73.6255 29.9197 71.4031 29.0325 69.6454 27.2579C67.9047 25.4834 67.0344 23.3033 67.0344 20.7175C67.0344 18.1318 67.9047 15.9516 69.6454 14.1771C71.4031 12.4026 73.6255 11.5153 76.3126 11.5153C77.935 11.5153 79.4223 11.904 80.7743 12.6814C82.1432 13.4589 83.2079 14.5067 83.9684 15.8249L81.915 17.0164C81.408 16.0362 80.6475 15.2587 79.6335 14.6841C78.6364 14.0926 77.5294 13.7969 76.3126 13.7969C74.2677 13.7969 72.5945 14.456 71.2932 15.7742C70.0088 17.0924 69.3666 18.7402 69.3666 20.7175C69.3666 22.678 70.0088 24.3173 71.2932 25.6355C72.5945 26.9537 74.2677 27.6128 76.3126 27.6128C77.5294 27.6128 78.6364 27.3255 79.6335 26.7509C80.6475 26.1594 81.408 25.382 81.915 24.4187L83.9684 25.5848C83.2248 26.903 82.1686 27.9593 80.7996 28.7536C79.4307 29.531 77.935 29.9197 76.3126 29.9197Z" fill="black"/>
<path d="M88.9961 27.3593H97.235V29.5902H86.6385V11.8449H97.1083V14.0757H88.9961V19.5261H96.4745V21.7315H88.9961V27.3593Z" fill="black"/>
<path d="M111.438 11.8449V14.0757H106.191V29.5902H103.858V14.0757H98.6362V11.8449H111.438Z" fill="black"/>
<path d="M116.129 27.3593H124.368V29.5902H113.771V11.8449H124.241V14.0757H116.129V19.5261H123.607V21.7315H116.129V27.3593Z" fill="black"/>
<path d="M137.354 20.388C138.165 20.7767 138.808 21.3344 139.281 22.0611C139.771 22.7878 140.016 23.6244 140.016 24.5708C140.016 25.9904 139.517 27.1819 138.52 28.1452C137.523 29.1085 136.306 29.5902 134.87 29.5902H127.214V11.8449H134.312C135.698 11.8449 136.873 12.3096 137.836 13.2392C138.799 14.1687 139.281 15.3179 139.281 16.6868C139.281 18.2585 138.639 19.4923 137.354 20.388ZM134.312 14.0504H129.572V19.4754H134.312C135.056 19.4754 135.681 19.2134 136.188 18.6895C136.695 18.1656 136.949 17.5234 136.949 16.7629C136.949 16.0193 136.687 15.3855 136.163 14.8616C135.656 14.3208 135.039 14.0504 134.312 14.0504ZM134.87 27.3847C135.664 27.3847 136.332 27.1058 136.873 26.5481C137.413 25.9904 137.684 25.306 137.684 24.4947C137.684 23.7004 137.405 23.0244 136.847 22.4667C136.306 21.909 135.647 21.6301 134.87 21.6301H129.572V27.3847H134.87Z" fill="black"/>
<path d="M157.564 27.2326C155.79 29.024 153.618 29.9197 151.049 29.9197C148.481 29.9197 146.309 29.024 144.534 27.2326C142.76 25.4412 141.873 23.2695 141.873 20.7175C141.873 18.1487 142.76 15.977 144.534 14.2025C146.309 12.411 148.481 11.5153 151.049 11.5153C153.618 11.5153 155.79 12.411 157.564 14.2025C159.356 15.977 160.252 18.1487 160.252 20.7175C160.252 23.2695 159.356 25.4412 157.564 27.2326ZM146.157 25.6355C147.475 26.9537 149.106 27.6128 151.049 27.6128C152.993 27.6128 154.615 26.9537 155.917 25.6355C157.235 24.3004 157.894 22.6611 157.894 20.7175C157.894 18.7571 157.235 17.1178 155.917 15.7995C154.615 14.4644 152.993 13.7969 151.049 13.7969C149.106 13.7969 147.475 14.4644 146.157 15.7995C144.855 17.1178 144.205 18.7571 144.205 20.7175C144.205 22.6611 144.855 24.3004 146.157 25.6355Z" fill="black"/>
<path d="M166.356 9.9436V8.01697H173.201V9.9436H166.356ZM174.113 29.5902V16.3573L164.987 29.5902H163.086V11.8449H165.443V25.1032L174.57 11.8449H176.471V29.5902H174.113Z" fill="black"/>
<path d="M78.1378 34.9486H80.5208L74.8169 48.4857C74.1747 50.0067 73.3551 51.1137 72.3579 51.8066C71.3608 52.4826 70.144 52.7784 68.7075 52.6939V50.5137C69.6877 50.6151 70.482 50.4715 71.0904 50.0828C71.6988 49.6941 72.2058 49.0265 72.6114 48.0801L72.7889 47.6745L66.7808 34.9486H69.1638L73.879 45.0887L78.1378 34.9486Z" fill="black"/>
<path d="M93.6543 34.9486H95.9865V52.6939H93.6543V44.7085H85.0351V52.6939H82.6775V34.9486H85.0351V42.4776H93.6543V34.9486Z" fill="black"/>
<path d="M110.812 52.6939V39.4609L101.685 52.6939H99.7841V34.9486H102.142V48.2068L111.268 34.9486H113.169V52.6939H110.812Z" fill="black"/>
<path d="M127.105 43.4917C127.916 43.8804 128.559 44.4381 129.032 45.1648C129.522 45.8915 129.767 46.7281 129.767 47.6745C129.767 49.0941 129.268 50.2856 128.271 51.2489C127.274 52.2122 126.057 52.6939 124.621 52.6939H116.965V34.9486H124.063C125.449 34.9486 126.623 35.4133 127.587 36.3428C128.55 37.2724 129.032 38.4216 129.032 39.7905C129.032 41.3622 128.39 42.5959 127.105 43.4917ZM124.063 37.1541H119.323V42.5791H124.063C124.807 42.5791 125.432 42.3171 125.939 41.7932C126.446 41.2693 126.7 40.6271 126.7 39.8666C126.7 39.1229 126.438 38.4892 125.914 37.9653C125.407 37.4245 124.79 37.1541 124.063 37.1541ZM124.621 50.4884C125.415 50.4884 126.083 50.2095 126.623 49.6518C127.164 49.0941 127.435 48.4096 127.435 47.5984C127.435 46.8041 127.156 46.1281 126.598 45.5704C126.057 45.0127 125.398 44.7338 124.621 44.7338H119.323V50.4884H124.621Z" fill="black"/>
<path d="M134.919 50.463H143.158V52.6939H132.561V34.9486H143.031V37.1794H134.919V42.6297H142.397V44.8352H134.919V50.463Z" fill="black"/>
<path d="M152.443 34.9486C154.082 34.9486 155.443 35.4978 156.525 36.5963C157.623 37.678 158.172 39.03 158.172 40.6524C158.172 42.2579 157.623 43.61 156.525 44.7085C155.443 45.807 154.082 46.3563 152.443 46.3563H148.362V52.6939H146.004V34.9486H152.443ZM152.443 44.1508C153.423 44.1508 154.235 43.8212 154.877 43.1621C155.519 42.4861 155.84 41.6495 155.84 40.6524C155.84 39.6384 155.519 38.8018 154.877 38.1427C154.235 37.4836 153.423 37.1541 152.443 37.1541H148.362V44.1508H152.443Z" fill="black"/>
<path d="M169.173 53.0234C166.486 53.0234 164.264 52.1362 162.506 50.3616C160.765 48.5871 159.895 46.407 159.895 43.8212C159.895 41.2355 160.765 39.0553 162.506 37.2808C164.264 35.5063 166.486 34.619 169.173 34.619C170.796 34.619 172.283 35.0077 173.635 35.7851C175.004 36.5625 176.069 37.6104 176.829 38.9286L174.776 40.1201C174.269 39.1398 173.508 38.3624 172.494 37.7878C171.497 37.1963 170.39 36.9006 169.173 36.9006C167.128 36.9006 165.455 37.5597 164.154 38.8779C162.87 40.1961 162.227 41.8439 162.227 43.8212C162.227 45.7817 162.87 47.421 164.154 48.7392C165.455 50.0574 167.128 50.7165 169.173 50.7165C170.39 50.7165 171.497 50.4292 172.494 49.8546C173.508 49.2631 174.269 48.4857 174.776 47.5224L176.829 48.6885C176.086 50.0067 175.029 51.063 173.66 51.8573C172.291 52.6347 170.796 53.0234 169.173 53.0234Z" fill="black"/>
<path d="M190.527 52.6939V39.4609L181.401 52.6939H179.499V34.9486H181.857V48.2068L190.983 34.9486H192.884V52.6939H190.527Z" fill="black"/>
<path d="M208.037 34.9486V37.1794H202.79V52.6939H200.457V37.1794H195.235V34.9486H208.037Z" fill="black"/>
<path d="M212.728 50.463H220.967V52.6939H210.37V34.9486H220.84V37.1794H212.728V42.6297H220.206V44.8352H212.728V50.463Z" fill="black"/>
<path d="M235.17 34.9486V37.1794H229.922V52.6939H227.59V37.1794H222.368V34.9486H235.17Z" fill="black"/>
<path d="M71.6988 63.3251L68.9103 67.9643L71.6988 72.5781H69.3159L66.5273 67.9643L69.3159 63.3251H71.6988ZM76.0084 63.3251L73.2199 67.9643L76.0084 72.5781H73.6255L70.8369 67.9643L73.6255 63.3251H76.0084Z" fill="black"/>
<path d="M88.2467 66.6207C89.1593 67.0094 89.8691 67.5756 90.3761 68.3192C90.8832 69.0628 91.1367 69.9416 91.1367 70.9556C91.1367 72.4767 90.562 73.7188 89.4128 74.6821C88.2805 75.6455 86.7764 76.1271 84.9005 76.1271C83.1935 76.1271 81.8162 75.7469 80.7683 74.9863C79.7374 74.2258 79.0107 73.2456 78.5882 72.0457L80.5909 70.9049C81.1148 72.8992 82.5513 73.8963 84.9005 73.8963C86.1342 73.8963 87.089 73.6259 87.7651 73.0851C88.4411 72.5274 88.7791 71.7922 88.7791 70.8796C88.7791 69.967 88.458 69.2318 87.8158 68.6741C87.1904 68.1164 86.3116 67.8375 85.1793 67.8375H83.1006V65.6827H84.5963C85.6779 65.6827 86.5398 65.4208 87.182 64.8969C87.8242 64.3561 88.1453 63.6547 88.1453 62.7928C88.1453 61.9478 87.8411 61.2633 87.2327 60.7394C86.6412 60.1986 85.8131 59.9282 84.7484 59.9282C82.7879 59.9282 81.4782 60.7986 80.819 62.5393L78.8417 61.3985C79.9064 58.948 81.8753 57.7227 84.7484 57.7227C86.4553 57.7227 87.8327 58.1959 88.8805 59.1423C89.9452 60.0887 90.4775 61.2887 90.4775 62.7421C90.4775 64.4321 89.7339 65.725 88.2467 66.6207Z" fill="black"/>
<path d="M104.913 58.0523H107.246V75.7976H104.913V67.8122H96.2943V75.7976H93.9367V58.0523H96.2943V65.5813H104.913V58.0523Z" fill="black"/>
<path d="M122.73 75.7976L121.285 71.8175H113.299L111.854 75.7976H109.345L115.961 58.0523H118.623L125.24 75.7976H122.73ZM114.111 69.6121H120.474L117.279 60.8662L114.111 69.6121Z" fill="black"/>
<path d="M138.31 58.0523H140.642V75.7976H138.31V67.8122H129.69V75.7976H127.333V58.0523H129.69V65.5813H138.31V58.0523Z" fill="black"/>
<path d="M155.467 75.7976V62.5646L146.341 75.7976H144.439V58.0523H146.797V71.3105L155.923 58.0523H157.825V75.7976H155.467Z" fill="black"/>
<path d="M163.978 73.5667H172.217V75.7976H161.62V58.0523H172.09V60.2831H163.978V65.7334H171.456V67.9389H163.978V73.5667Z" fill="black"/>
<path d="M177.268 63.3251L180.057 67.9643L177.268 72.5781H174.886L177.674 67.9643L174.886 63.3251H177.268ZM181.578 63.3251L184.367 67.9643L181.578 72.5781H179.195L181.984 67.9643L179.195 63.3251H181.578Z" fill="black"/>
<defs>
<linearGradient id="paint0_linear" x1="-0.597465" y1="53.2437" x2="48.194" y2="48.3346" gradientUnits="userSpaceOnUse">
<stop stop-color="#52CEFF"/>
<stop offset="1" stop-color="#1C7B9C"/>
</linearGradient>
<linearGradient id="paint1_linear" x1="-0.597477" y1="18.3864" x2="48.194" y2="13.4773" gradientUnits="userSpaceOnUse">
<stop stop-color="#52CEFF"/>
<stop offset="1" stop-color="#1C7B9C"/>
</linearGradient>
<linearGradient id="paint2_linear" x1="51.9805" y1="16.8575" x2="12.4658" y2="62.9871" gradientUnits="userSpaceOnUse">
<stop stop-color="#EB4F45"/>
<stop offset="1" stop-color="#AB1C13"/>
</linearGradient>
<linearGradient id="paint3_linear" x1="51.9805" y1="51.619" x2="12.4658" y2="97.7485" gradientUnits="userSpaceOnUse">
<stop stop-color="#EB4F45"/>
<stop offset="1" stop-color="#AB1C13"/>
</linearGradient>
</defs>
</svg>
