<svg width="20" height="16" viewBox="0 0 20 16" fill="none" xmlns="http://www.w3.org/2000/svg">
<path fill-rule="evenodd" clip-rule="evenodd" d="M13.3431 0.928939L19.7071 7.2929C20.0976 7.68342 20.0976 8.31659 19.7071 8.70711L13.3431 15.0711C12.9526 15.4616 12.3195 15.4616 11.9289 15.0711C11.5384 14.6806 11.5384 14.0474 11.9289 13.6569L16.5858 9.00001L1 9.00001C0.447716 9.00001 6.9206e-07 8.55229 6.43778e-07 8.00001C5.95496e-07 7.44772 0.447716 7.00001 1 7.00001L16.5858 7.00001L11.9289 2.34315C11.5384 1.95263 11.5384 1.31946 11.9289 0.92894C12.3195 0.538415 12.9526 0.538415 13.3431 0.928939Z" fill="#75BAED"/>
</svg>
