<svg width="26" height="16" viewBox="0 0 26 16" fill="none" xmlns="http://www.w3.org/2000/svg">
<path fill-rule="evenodd" clip-rule="evenodd" d="M19.3431 0.928878L25.7071 7.29284C26.0976 7.68336 26.0976 8.31653 25.7071 8.70705L19.3431 15.071C18.9526 15.4615 18.3195 15.4615 17.9289 15.071C17.5384 14.6805 17.5384 14.0473 17.9289 13.6568L22.5858 8.99995L1 8.99995C0.447716 8.99995 6.9206e-07 8.55223 6.43778e-07 7.99995C5.95496e-07 7.44766 0.447716 6.99995 1 6.99995L22.5858 6.99995L17.9289 2.34309C17.5384 1.95257 17.5384 1.3194 17.9289 0.928878C18.3195 0.538354 18.9526 0.538354 19.3431 0.928878Z" fill="#75BAED"/>
</svg>
