<svg width="28" height="19" viewBox="0 0 28 19" fill="none" xmlns="http://www.w3.org/2000/svg">
<path fill-rule="evenodd" clip-rule="evenodd" d="M0 1C0 0.447715 0.447715 0 1 0H27C27.5523 0 28 0.447715 28 1V18C28 18.5523 27.5523 19 27 19H1C0.447715 19 0 18.5523 0 18V1ZM4.49767 2L11.2786 6.22256C11.7474 6.5145 11.8908 7.13121 11.5989 7.60003C11.3069 8.06885 10.6902 8.21224 10.2214 7.9203L2 2.80075V8.5H13V2H4.49767ZM15 2V8.5H26V2.80075L17.7786 7.9203C17.3098 8.21224 16.6931 8.06885 16.4011 7.60003C16.1092 7.13121 16.2526 6.5145 16.7214 6.22256L23.5023 2H15ZM26 10.5H15V17H23.2195L16.7051 12.7671C16.242 12.4662 16.1106 11.8468 16.4115 11.3837C16.7124 10.9206 17.3318 10.7891 17.7949 11.09L26 16.4216V10.5ZM13 17V10.5H2V16.1993L10.2214 11.0797C10.6902 10.7878 11.3069 10.9312 11.5989 11.4C11.8908 11.8688 11.7474 12.4855 11.2786 12.7774L4.49767 17H13Z" fill="white"/>
</svg>
