<svg width="24" height="18" viewBox="0 0 24 18" fill="none" xmlns="http://www.w3.org/2000/svg">
<path fill-rule="evenodd" clip-rule="evenodd" d="M1.85273 9C1.9691 9.20589 2.14027 9.49606 2.3644 9.84311C2.83126 10.566 3.523 11.5279 4.42215 12.487C6.23414 14.4198 8.79963 16.25 12 16.25C15.2004 16.25 17.7659 14.4198 19.5778 12.487C20.477 11.5279 21.1687 10.566 21.6356 9.84311C21.8597 9.49606 22.0309 9.20589 22.1473 9C22.0309 8.79411 21.8597 8.50394 21.6356 8.15689C21.1687 7.43402 20.477 6.47205 19.5778 5.51296C17.7659 3.58017 15.2004 1.75 12 1.75C8.79963 1.75 6.23414 3.58017 4.42215 5.51296C3.523 6.47205 2.83126 7.43402 2.3644 8.15689C2.14027 8.50394 1.9691 8.79411 1.85273 9ZM23 9C23.6708 8.66459 23.6707 8.66433 23.6705 8.66404L23.6702 8.66331L23.6692 8.66129L23.666 8.65508L23.6553 8.63413C23.6462 8.61643 23.6332 8.59135 23.6163 8.55937C23.5824 8.49541 23.533 8.40383 23.4681 8.28855C23.3385 8.05811 23.1471 7.73239 22.8957 7.34311C22.3938 6.56598 21.648 5.52795 20.6722 4.48704C18.7341 2.41983 15.7996 0.25 12 0.25C8.20037 0.25 5.26586 2.41983 3.32785 4.48704C2.352 5.52795 1.60624 6.56598 1.10435 7.34311C0.852934 7.73239 0.661492 8.05811 0.531865 8.28855C0.467023 8.40383 0.417564 8.49541 0.383723 8.55937C0.3668 8.59135 0.353774 8.61643 0.344675 8.63413L0.333974 8.65508L0.330837 8.66129L0.329823 8.66331L0.329455 8.66404C0.32931 8.66433 0.32918 8.66459 1 9L0.32918 8.66459C0.223607 8.87574 0.223607 9.12426 0.32918 9.33541L1 9C0.32918 9.33541 0.32931 9.33567 0.329455 9.33596L0.329823 9.3367L0.330837 9.33871L0.333974 9.34492L0.344675 9.36587C0.353774 9.38357 0.3668 9.40865 0.383723 9.44063C0.417564 9.50459 0.467023 9.59617 0.531865 9.71145C0.661492 9.94189 0.852934 10.2676 1.10435 10.6569C1.60624 11.434 2.352 12.4721 3.32785 13.513C5.26586 15.5802 8.20037 17.75 12 17.75C15.7996 17.75 18.7341 15.5802 20.6722 13.513C21.648 12.4721 22.3938 11.434 22.8957 10.6569C23.1471 10.2676 23.3385 9.94189 23.4681 9.71145C23.533 9.59617 23.5824 9.50459 23.6163 9.44063C23.6332 9.40865 23.6462 9.38357 23.6553 9.36587L23.666 9.34492L23.6692 9.33871L23.6702 9.3367L23.6705 9.33596C23.6707 9.33567 23.6708 9.33541 23 9ZM23 9L23.6708 9.33541C23.7764 9.12426 23.7764 8.87574 23.6708 8.66459L23 9Z" fill="white"/>
<path fill-rule="evenodd" clip-rule="evenodd" d="M12 6.75C10.7574 6.75 9.75 7.75736 9.75 9C9.75 10.2426 10.7574 11.25 12 11.25C13.2426 11.25 14.25 10.2426 14.25 9C14.25 7.75736 13.2426 6.75 12 6.75ZM8.25 9C8.25 6.92893 9.92893 5.25 12 5.25C14.0711 5.25 15.75 6.92893 15.75 9C15.75 11.0711 14.0711 12.75 12 12.75C9.92893 12.75 8.25 11.0711 8.25 9Z" fill="white"/>
</svg>
